<svg width="296" height="352" viewBox="0 0 296 352" fill="none" xmlns="http://www.w3.org/2000/svg">
<path d="M176.427 16.566C188.51 15.9529 195.34 16.3086 205.376 24.0854C212.138 29.2759 216.543 36.9592 217.608 45.4209C226.591 46.8124 231.878 50.6284 237.772 57.1485C248.15 68.6278 245.75 88.0269 231.012 94.4734C225.213 97.0097 220.016 96.0648 213.993 95.496C212.933 97.6838 211.777 100.019 211.087 102.338C212.438 103.601 213.866 104.59 215.371 106.059C220.504 111.084 224.343 117.28 226.558 124.116C227.393 126.739 227.685 129.713 228.615 132.192C229.556 134.702 231.598 137.554 232.677 140.068C236.577 149.149 236.624 159.488 234.098 168.947C233.37 171.674 231.423 176.125 230.988 178.533C229.959 184.243 230.107 187.586 227.906 193.245C225.306 199.933 221.848 205.607 216.475 210.476C215.069 211.891 211.446 213.804 210.256 215.27C205.344 221.321 201.713 226.207 194.397 229.684C190.95 231.322 187.243 232.598 183.706 234.211C183.149 236.755 182.431 242.772 182.565 245.484C182.783 249.864 191.91 267.137 190.558 270.076C188.328 274.92 173.831 280.109 169.098 281.816C169.897 284.605 171.096 288.034 172.157 290.727C180.634 292.216 182.202 293.748 183.077 302.198C186.864 306.674 192.038 310.544 193.974 316.526C194.501 318.154 195.569 327.766 195.479 329.15C195.413 330.137 195.145 331.098 194.691 331.973C188.826 343.276 153.36 343.152 147.132 330.35C146.633 329.325 146.957 326.224 146.879 324.9C146.448 317.655 148.241 313.924 151.656 307.843C147.417 302.132 149.773 300.113 153.878 295.221C152.768 292.117 151.487 289.079 150.043 286.117C139.32 287.037 133.073 286.822 122.346 286.2C122.449 288.135 122.232 291.128 122.966 292.857C123.251 293.529 124.094 293.679 124.776 293.92C131.551 295.523 133.512 299.814 130.862 306.131C134.713 311.028 134.358 311.857 134.806 318.134C134.872 319.661 135.611 321.75 135.523 323.257C135.05 331.39 126.365 332.353 120.14 333.571C117.92 334.004 115.291 335.414 113.083 335.97C107.651 337.337 102.264 338.039 96.6706 337.897C88.9016 337.755 73.4336 335.478 74.1411 324.862C74.5844 318.21 74.2162 311.639 79.6916 306.719C85.4707 301.525 90.8788 301.348 98.1949 301.602C99.1595 295.842 100.019 295.723 105.272 293.436C104.197 289.563 103.588 286.604 103.196 282.642C97.5576 280.357 88.8638 278.334 84.1882 274.4C82.5982 273.064 83.1478 265.07 83.1296 262.39C78.9412 262.598 74.9823 262.719 71.0932 260.805C67.0019 258.768 63.9094 255.159 62.5211 250.802C59.3941 241.243 64.1704 229.602 69.3742 221.711C71.1061 219.084 74.0801 215.237 75.367 212.667C73.4239 210.964 71.205 209.349 69.2004 207.628C63.4821 202.716 59.0862 197.54 55.6077 190.865C52.6292 185.15 52.1543 180.873 50.4576 174.825C49.9692 173.085 48.267 170.293 47.6106 168.172C44.5786 158.372 44.2505 146.874 47.9294 137.203C49.1907 133.887 51.2797 130.598 52.6332 127.171C54.2301 123.127 54.7407 118.72 56.1361 114.739C59.2618 105.82 65.0822 97.6201 73.1872 92.5894C75.9108 90.8989 79.4043 89.5901 81.7864 87.5975C83.8197 85.8314 85.3706 83.6391 87.2151 81.6716C92.0311 76.5357 98.7274 72.6992 105.48 70.7906C108.6 69.9085 111.628 69.1026 114.843 68.6993C117.664 68.3458 120.374 68.0651 123.221 68.0975C125.653 68.0699 128.867 68.2091 131.041 67.2688C132.21 66.7628 133.754 62.0836 134.1 60.9556C130.067 57.1143 126.304 55.0555 124.452 49.3153C119.592 34.247 132.912 21.8438 147.235 21.4878C151.582 21.3797 156.404 22.7926 160.261 24.7084C165.352 20.1888 169.64 17.9469 176.427 16.566Z" fill="#1A5632"/>
<path d="M80.6131 209.515C71.5613 202.973 62.9119 194.921 59.0284 184.104C57.8036 180.693 56.9722 177.248 55.9045 173.793C54.5393 169.669 51.8058 164.813 51.3175 160.414C50.3854 152.02 50.7777 143.491 54.6037 135.806C56.0401 132.773 57.919 129.954 59.0097 126.765C60.0236 123.801 60.496 120.692 61.3757 117.671C64.1656 108.088 71.0628 99.883 79.8103 95.1478C81.3506 94.3139 83.2325 93.611 84.6583 92.5443C86.9054 90.8634 88.3317 87.9736 90.294 85.9572C96.5363 79.0306 106.267 75.2641 115.304 73.8688C118.73 73.2776 122.105 73.4924 125.561 73.1904C128.7 72.9162 131.656 72.386 134.86 72.2739C147.757 71.8252 160.403 74.9686 172.029 80.4241C173.401 81.0678 174.981 82.2574 176.287 82.7552C188.737 87.4986 200.069 95.4901 208.065 106.223C209.017 107.502 211.315 108.99 212.376 110.329C215.749 114.025 218.396 118.617 220.537 123.115C222.326 126.874 222.843 131.045 224.272 134.918C226.542 139.808 229.251 144.539 229.928 149.993C230.669 156.049 230.58 162.562 228.616 168.392C228.01 170.189 227.315 172.119 226.622 173.879C225.324 177.183 225.163 180.533 224.524 184.004C223.414 190.026 221.215 196.023 217.534 200.963C213.938 205.831 210.295 208.272 205.634 211.912C204.677 212.659 202.153 216.421 201.048 217.685C195.942 223.526 189.725 226.394 182.603 229.094C181.653 224.561 179.843 220.253 175.795 217.617C169.858 213.752 166.834 216.288 160.753 211.751C160.792 209.586 162.104 208.94 159.957 207.224L160.111 206.017C158.135 207.103 151.45 206.517 148.653 206.721L148.55 206.609C143.307 200.932 141.151 201.011 133.702 202.18C127.92 203.088 124.44 203.685 120.011 207.876C117.708 202.126 113.436 198.7 108.169 195.592C104.057 193.165 99.7084 194.078 95.4093 195.437C93.9012 194.311 91.8703 192.584 90.577 191.244C89.9257 192.024 89.8649 192.129 89.5101 193.081C90.4592 194.277 91.3289 195.471 92.5048 196.448C88.1279 200.663 87.4614 201.874 85.7802 207.712L80.6131 209.515Z" fill="#FFD7DF"/>
<path d="M91.5566 177.339C93.1514 176.658 93.9672 173.971 96.803 174.465C98.3956 175.548 98.4665 178.017 96.5706 178.883C94.485 179.141 94.1672 179.046 92.1256 178.542L92.0985 177.696L91.5566 177.339Z" fill="#FFD7DF"/>
<path d="M92.1258 178.542C94.1674 179.046 94.4852 179.141 96.5709 178.883C95.7138 179.45 90.3133 181.82 89.252 181.856L90.698 180.114C91.1501 179.893 91.7781 178.983 92.1258 178.542Z" fill="#FFD7DF"/>
<path d="M167.112 196.07C170.345 195.199 171.128 197.652 169.3 200.132L168.965 199.71C168.63 199.444 167.244 196.583 167.112 196.07Z" fill="#FFD7DF"/>
<path d="M100.085 101.771L100.816 101.941C101.738 104.434 98.2749 106.352 102.887 112.153C106.792 110.027 111.445 108.758 115.706 109.944C130.616 114.094 131.235 134.07 126.628 145.946C124.395 151.703 121.161 156.752 115.54 159.444C114.975 159.714 115.018 160.973 114.965 161.513C114.141 162.067 113.206 160.947 112.278 160.201C108.261 156.972 101.6 154.684 96.4679 154.621C94.6696 154.629 89.8579 155.4 88.7874 154.64L88.8221 154.184C89.4184 153.4 90.2626 153.201 91.1954 152.855C89.2349 147.89 88.4242 145.41 88.5175 139.974C88.632 133.284 90.2854 128.453 93.3158 122.556C91.4268 121.357 89.8302 120.3 88.4668 118.471C87.7124 117.459 85.8411 114.554 87.3038 113.474C89.0183 114.233 93.958 122.916 96.5701 117.762L96.3615 117.239C93.4012 115.505 88.6774 108.163 92.5046 106.342C94.011 107.742 92.0457 111.765 98.5321 115.224C99.3329 114.7 100.15 113.924 100.875 113.277C97.4424 109.87 96.9464 105.525 100.085 101.771Z" fill="#1A5632"/>
<path d="M110.564 112.671C121.397 111.312 127.624 122.785 126.605 132.367L126.385 132.336C126.31 132.104 126.23 131.874 126.148 131.644C123.971 125.64 118.962 125.254 113.726 127.224C108.066 121.083 101.594 126.638 99.5057 132.909C98.8544 134.865 98.7652 136.345 98.5683 138.381C98.4614 142.594 100.287 149.479 102.542 152.877C99.0225 152.119 96.9416 152.145 93.3278 152.215C92.588 150.117 91.4681 147.219 91.11 145.042C89.0946 132.781 96.9667 114.671 110.564 112.671Z" fill="white"/>
<path d="M107.204 131.607C107.578 131.544 107.957 131.491 108.337 131.519C111.038 131.715 110.873 133.981 112.353 135.385C113.031 136.028 115.281 133.096 117.269 133.228C118.042 133.279 118.823 133.724 119.308 134.317C120.118 135.306 120.358 136.661 120.267 137.907C120.108 140.077 118.049 141.813 116.5 143.13C114.369 144.359 112.069 145.673 110.196 147.267C108.324 143.735 103.602 139.117 104.523 134.86C104.87 133.259 105.876 132.441 107.204 131.607Z" fill="#FFD7DF"/>
<path d="M118.99 153.364L119.307 153.712C119.283 153.872 119.281 153.967 119.221 154.11C118.714 155.32 115.596 157.42 114.401 158.031L114.161 157.725C114.804 156.338 117.769 154.411 118.99 153.364Z" fill="#1A5632"/>
<path d="M167.004 124.113C169.157 124.189 171.19 124.447 173.197 125.278C178.863 127.62 181.731 132.268 183.951 137.657C191.022 137.089 187.923 136.358 192.369 133.62L192.87 133.781C194.822 137.334 187.212 140.328 184.634 140.653C184.894 141.768 184.998 143.006 185.124 144.153C189.701 144.406 190.472 143.579 194.438 142.003L194.707 142.285C194.612 146.007 188.497 147.287 185.634 147.407C184.911 155.238 182.648 162.963 177.268 168.849C175.9 170.156 174.399 171.48 172.994 172.76C173.965 174.018 174.143 174.327 174.397 175.871L174.134 176.165C173.493 176.008 169.079 173.006 168.061 172.413C165.44 170.901 162.633 169.738 159.711 168.955C157.246 168.296 155.538 168.122 153.022 168.066C151.407 168.03 145.958 168.72 144.88 168.404C144.674 167.335 145.914 166.757 145.674 166.136C145.412 165.462 145.047 164.406 144.817 163.617C144.252 161.655 143.887 159.642 143.726 157.607C142.542 142.957 150.801 125.448 167.004 124.113Z" fill="#1A5632"/>
<path d="M164.784 127.114C165.872 126.992 167.063 127.001 168.148 127.142C172.227 127.691 175.91 129.872 178.354 133.187C182.565 138.877 183.238 146.474 182.146 153.291C180.932 160.554 176.884 167.037 170.893 171.313C169.546 170.452 168.11 169.702 166.717 168.916C171.172 166.803 174.977 163.356 177.287 158.978C179.261 155.235 180.363 150.646 179.049 146.517C178.036 143.332 176.183 141.559 173.317 140.053C173.162 140.003 173.014 139.96 172.854 139.924C170.736 139.449 169.263 139.86 167.457 141.014C166.059 139.309 164.547 137.823 162.324 137.346C160.399 136.932 158.463 137.458 156.84 138.525C153.441 140.759 151.477 144.48 150.676 148.383C149.398 154.606 150.807 160.553 154.275 165.795C152.177 165.601 149.88 165.83 147.812 166.207C147.011 164.159 146.436 162.029 146.098 159.856C144.738 151.604 147.109 142.316 151.993 135.549C154.987 131.399 159.67 127.954 164.784 127.114Z" fill="white"/>
<path d="M159.737 144.02C160.595 144.005 161.367 144.116 162.113 144.554C163.63 145.442 164.086 147.058 164.496 148.655C165.531 148.021 166.645 147.399 167.811 147.049C168.841 146.739 169.916 146.683 170.872 147.269C172.078 148.009 172.336 149.329 172.684 150.594C172.648 150.744 172.611 150.893 172.572 151.043C171.822 153.926 170.586 155.056 168.085 156.522C165.89 157.758 163.432 158.422 161.246 159.715C159.668 156.239 155.601 151.396 156.617 147.437C157.063 145.698 158.273 144.903 159.737 144.02Z" fill="#FFD7DF"/>
<path d="M108.884 164.815C109.585 164.86 110.102 164.909 110.745 165.222L110.858 165.598L109.874 167.043C109.839 167.496 109.765 167.745 109.978 168.161C111.662 171.451 118.959 174.493 122.349 175.542C129.58 177.781 140.337 177.929 147.193 174.307C147.541 173.503 146.68 173.35 146.576 172.505C147.073 172.198 147.526 172.142 148.107 172.234C149.924 172.522 151.94 174.506 152.886 175.997C153.285 176.625 153.406 177.062 153.255 177.781L152.747 178.015C151.848 177.929 151.188 177.134 150.557 176.548C150.148 180.684 148.466 184.872 146.305 188.388C145.367 189.721 144.378 191.071 143.263 192.263C139.718 196.056 134.919 198.51 129.678 198.648C125.136 198.769 120.547 197.267 117.264 194.064C111.885 188.814 110.244 179.351 110.18 172.126C108.915 171.13 108.384 170.141 107.388 168.976C106.622 168.081 105.563 169.637 104.498 169.355C104.411 169.059 104.334 168.768 104.41 168.459C104.785 166.939 107.643 165.503 108.884 164.815Z" fill="#1A5632"/>
<path d="M134.486 187.447C137.845 187.323 140.029 187.32 143.051 188.987C142.501 189.74 141.878 190.428 141.215 191.083C137.889 194.399 133.376 196.249 128.681 196.219C126.158 195.84 123.879 195.367 121.538 194.324C122.161 193.132 122.909 192.071 123.888 191.143C125.663 189.46 127.836 188.595 130.283 188.66L130.595 189.01C130.497 189.372 130.387 189.694 130.439 190.073L134.486 187.447Z" fill="#FFD7DF"/>
<path d="M116.269 176.357C118.411 176.633 120.695 177.798 122.818 178.347C128.984 179.941 136.279 179.98 142.476 178.572L140.086 180.653C139.052 181.348 137.997 182.067 136.823 182.505C132.247 184.213 125.326 183.604 120.891 181.557C118.377 180.397 117.216 178.905 116.269 176.357Z" fill="white"/>
<path d="M211.335 155.249C213.101 155.136 214.617 155.205 216.226 156.013C218.225 157.017 219.528 158.839 220.19 160.943C221.246 164.298 220.732 168.182 219.104 171.272C217.583 174.158 215.289 175.918 212.207 176.867C210.213 177.053 208.37 176.804 206.627 175.768C204.672 174.606 203.356 172.574 202.822 170.388C201.984 166.952 202.642 163.09 204.518 160.101C206.171 157.465 208.317 155.928 211.335 155.249Z" fill="#1A5632"/>
<path d="M165.978 88.0588C171.041 87.7005 176.239 90.6933 177.613 95.7493C178.246 97.994 177.919 100.401 176.71 102.395C174.883 105.424 172.513 106.244 169.362 107.053C164.349 107.626 158.773 105.036 157.372 99.8863C156.748 97.5233 157.109 95.0083 158.371 92.9158C160.166 89.9347 162.809 88.8719 165.978 88.0588Z" fill="#1A5632"/>
<path d="M190.028 195.832C192.143 195.628 194.198 195.917 195.986 197.151C197.52 198.21 198.434 199.844 198.752 201.664C199.207 204.276 198.437 206.844 196.907 208.971C194.563 212.228 191.335 213.994 187.429 214.596C185.299 214.778 183.405 214.6 181.49 213.559C179.976 212.736 178.939 211.485 178.453 209.826C177.773 207.508 178.445 205.145 179.6 203.103C181.952 198.949 185.608 197.071 190.028 195.832Z" fill="#1A5632"/>
<path d="M122.713 78.9261C127.022 78.5117 132.832 79.045 134.344 83.9677C134.919 85.8571 134.715 87.898 133.776 89.6352C131.922 93.1377 128.426 94.6824 124.864 95.7663C109.437 97.5179 108.656 81.5362 122.713 78.9261Z" fill="#1A5632"/>
<path d="M196.558 110.854C206.607 109.961 215.398 126.153 203.084 130.439C190.886 131.176 184.464 114.632 196.558 110.854Z" fill="#1A5632"/>
<path d="M69.0289 125.854C70.7479 125.599 72.366 125.667 73.9352 126.499C75.7125 127.441 76.8377 129.145 77.3828 131.048C78.3052 134.269 77.5711 137.833 75.938 140.703C74.6557 142.956 72.6399 145.026 70.093 145.741C68.4856 146.169 66.6181 146.187 65.0717 145.525C63.562 144.879 62.4812 143.65 61.8811 142.135C60.6727 139.084 61.2761 135.391 62.5557 132.463C63.9204 129.34 65.8482 127.119 69.0289 125.854Z" fill="#1A5632"/>
<path d="M70.7188 168.944C72.378 168.885 73.7016 169.086 75.191 169.854C78.1708 171.393 80.3016 174.387 81.2925 177.543C82.0112 179.832 82.0918 182.435 80.9065 184.587C79.8398 186.525 78.409 187.266 76.3636 187.887C74.7374 188.237 73.2115 188.095 71.6869 187.421C69.065 186.262 67.1689 183.715 66.1699 181.091C65.1921 178.523 64.9473 175.352 66.1341 172.808C67.1161 170.704 68.603 169.728 70.7188 168.944Z" fill="#1A5632"/>
<path d="M78.3508 104.176C78.7059 104.247 78.9596 104.392 79.2936 104.542C81.5574 107.216 74.9658 119.267 73.2223 121.998C71.6696 120.461 70.904 116.263 71.3682 114.147C72.2501 110.129 75.0383 106.509 78.3508 104.176Z" fill="#FFD7DF"/>
<path d="M213.917 130.243C214.51 130.245 215.221 130.249 215.764 130.502C217.503 131.312 218.554 133.571 219.091 135.288C220.545 139.939 220.227 143.745 217.948 148.039C217.77 148.31 217.592 148.592 217.384 148.84C216.964 149.337 216.796 149.542 216.155 149.603L215.845 149.232C215.309 147.224 215.813 144.979 215.619 142.898C215.336 139.857 213.123 132.635 213.917 130.243Z" fill="#FFD7DF"/>
<path d="M123.321 156.024C124.563 155.917 125.849 155.865 127.052 156.244C128.439 156.682 129.928 157.723 130.559 159.077C130.861 159.725 131.194 160.882 130.975 161.561C129.678 161.44 127.768 159.702 126.523 159.132C125.492 158.66 124.228 158.469 123.161 158.94C122.299 159.322 121.576 160.145 121.259 161.034C120.831 162.235 121.26 163.365 121.723 164.47C122.969 166.508 125.364 166.42 126.472 168.011L126.308 168.477C124.906 168.91 123.393 168.805 122.065 168.181C120.464 167.411 119.285 165.895 118.741 164.222C118.181 162.526 118.337 160.674 119.173 159.096C120.144 157.284 121.413 156.592 123.321 156.024Z" fill="#1A5632"/>
<path d="M95.652 91.1751C96.023 91.1604 96.1054 91.2519 96.4693 91.4079L96.4589 91.8334C94.8588 93.6607 88.288 97.1271 85.8042 97.6323C85.0538 97.3242 84.9278 97.2887 84.4798 96.623C83.6686 91.8028 92.2105 91.6635 95.652 91.1751Z" fill="#FFD7DF"/>
<path d="M142.979 108.027C146.413 108.727 146.84 111.343 143.629 112.696C140.248 111.693 140.149 109.98 142.979 108.027Z" fill="#B18F93"/>
<path d="M181.588 175.753C182.29 175.949 183.129 176.28 183.562 176.895C183.879 177.345 183.883 177.747 183.767 178.26C183.551 179.212 182.614 179.641 181.843 180.104C181.791 180.109 181.739 180.12 181.686 180.12C180.979 180.119 180.446 179.762 179.979 179.269C179.694 178.691 179.648 178.242 179.806 177.612C180.068 176.571 180.722 176.259 181.588 175.753Z" fill="#1A5632"/>
<path d="M80.1005 152.757C81.1256 152.373 82.2678 152.892 82.6538 153.917C83.04 154.941 82.5245 156.086 81.5012 156.475C80.4743 156.865 79.3258 156.347 78.9383 155.318C78.5506 154.29 79.0716 153.142 80.1005 152.757Z" fill="#1A5632"/>
<path d="M176.493 184.474C177.111 184.232 177.812 184.342 178.326 184.762C178.841 185.181 179.09 185.845 178.979 186.5C178.868 187.155 178.413 187.699 177.788 187.925C176.84 188.267 175.793 187.783 175.439 186.839C175.084 185.895 175.554 184.841 176.493 184.474Z" fill="#1A5632"/>
<path d="M87.1237 159.471C87.8209 159.448 88.5814 159.513 89.2218 159.822C89.8453 160.123 89.9634 160.422 90.2082 161.018C90.0543 161.837 89.809 162.085 89.2938 162.711C88.6597 162.845 87.958 162.955 87.3577 162.626C86.827 162.335 86.5373 161.895 86.4451 161.304C86.3346 160.596 86.752 160.024 87.1237 159.471Z" fill="#1A5632"/>
<path d="M79.9615 161.794C80.8715 161.403 81.9255 161.83 82.3074 162.744C82.6894 163.659 82.2524 164.71 81.3351 165.083C80.4298 165.452 79.3969 165.022 79.02 164.119C78.6432 163.217 79.0633 162.179 79.9615 161.794Z" fill="#1A5632"/>
<path d="M170.536 178.693C170.958 178.8 171.425 178.897 171.823 179.075C172.483 179.369 172.631 179.676 172.884 180.302C172.786 181.153 172.253 181.554 171.665 182.104C170.972 182.274 170.858 182.259 170.18 182.032C169.758 181.497 169.62 181.279 169.595 180.566C169.567 179.753 170.038 179.263 170.536 178.693Z" fill="#1A5632"/>
<path d="M79.9023 201.443C80.3831 201.391 80.8727 201.325 81.356 201.312C81.985 201.293 82.2022 201.313 82.6682 201.738L82.5559 202.498C81.6089 202.634 80.8798 202.614 80.0531 202.132L79.9023 201.443Z" fill="#FFD7DF"/>
<path d="M158.463 28.2952C157.551 29.4671 155.696 31.5159 155.845 33.003C157.294 33.2158 164.3 26.4284 166.176 25.2162C179.423 16.6555 198.054 20.3631 207.538 32.8177C213.165 40.2059 214.55 48.3308 213.263 57.4409C213.227 57.6966 213.186 57.9517 213.141 58.206L213.363 58.5778C215.463 58.2304 216.886 51.1686 217.12 49.2782C229.883 51.6601 241.359 64.5005 238.741 77.759C237.865 82.349 235.172 86.3894 231.275 88.9634C226.072 92.4375 220.941 92.1304 215.102 91.4203C215.371 89.9444 215.166 87.1393 215.419 86.7269C217.294 86.3488 218.336 86.0817 220.108 85.3859C210.075 84.5868 212.737 82.4732 206.601 77.7248C206.32 77.5343 206.401 77.565 206.207 77.2412C207.682 76.2552 211.009 76.2947 211.965 74.41C211.852 74.3344 211.738 74.2588 211.624 74.1832C208.723 75.1441 207.034 75.6945 203.968 74.9935C201.684 74.1414 193.038 67.4732 189.097 65.5648C193.047 63.7749 194.809 62.6243 196.976 58.729C192.115 61.6583 191.392 62.2419 185.709 63.377C181.064 61.7385 174.408 60.0086 172.347 55.5828C170.663 51.9651 171.431 47.981 170.946 47.0442C168.26 47.2897 169.574 55.4585 170.046 57.3659C167.385 56.3426 162.119 55.1684 159.278 54.6848C153.72 53.7386 151.649 53.7097 148.824 48.0371C148.335 47.0541 147.707 43.7991 147.216 43.1687C146.381 43.3416 146.645 43.1603 146.188 43.7811C145.675 46.0537 147.008 50.2439 148.265 52.2601C148.527 52.6879 148.818 53.0975 149.135 53.486C145.861 53.5611 141.65 54.1847 138.667 54.0561C138.111 55.4783 137.826 56.2267 137.048 57.5654C132.722 54.4872 129.133 51.2241 128.163 45.6279C127.492 41.6093 128.456 37.4893 130.84 34.1863C136.825 25.7744 149.551 23.9397 158.463 28.2952Z" fill="white"/>
<path d="M203.968 74.9935C209.408 74.7285 210.046 74.2629 215.017 71.8656C214.22 73.1688 213.842 73.5472 212.889 74.6915C211.244 76.6663 208.187 76.786 206.601 77.7248C206.32 77.5343 206.401 77.565 206.207 77.2412C207.682 76.2552 211.009 76.2947 211.965 74.41C211.852 74.3344 211.738 74.2588 211.623 74.1832C208.723 75.1441 207.034 75.6945 203.968 74.9935Z" fill="#1A5632"/>
<path d="M119.07 235.727C120.716 237.611 122.455 238.898 124.549 240.216C124.154 242.558 124.033 244.654 125.22 246.809C126.703 249.501 129.309 250.732 132.132 251.524C134.295 255.281 137.232 258.69 140.504 261.517C138.568 261.626 136.579 261.816 135.163 263.325C134.466 264.066 134.171 264.984 134.235 265.991C134.318 267.299 134.949 268.489 135.936 269.341C137.025 270.274 138.449 270.718 139.875 270.571C140.875 270.467 141.765 270.038 142.381 269.227C143.623 267.594 143.431 265.235 143.134 263.338C145.196 264.888 147.332 266.087 149.736 267.025C155.031 269.097 161.509 269.318 166.755 266.962C173.375 263.987 177.578 257.551 180.063 250.954C181.234 253.396 182.069 255.976 183.043 258.499C184.372 261.941 185.792 265.339 186.929 268.849L184.632 270.424C182.271 271.938 179.892 273.34 177.355 274.542C158.888 283.292 134.227 284.978 114.287 281.303C111.102 280.715 107.857 280.223 104.8 279.127C103.266 269.166 103.021 259.133 103.437 249.072C104.523 248.556 105.588 247.996 106.629 247.395L107.029 247.563L107.09 247.761C107.439 248.862 107.792 249.85 108.9 250.395C109.872 250.873 111.024 251.08 112.057 250.661C113.402 250.115 114.248 248.766 114.796 247.489C115.509 245.829 115.294 244.667 114.649 243.017C116.791 240.941 117.911 238.417 119.07 235.727Z" fill="white"/>
<path d="M111.164 260.465C111.968 260.559 112.828 260.8 113.547 261.177C114.686 261.776 115.519 262.879 115.868 264.109C116.211 265.316 116.06 266.61 115.447 267.705C114.697 269.044 113.523 269.653 112.1 270.069C111.337 270 110.663 269.878 109.969 269.541C108.766 268.958 107.829 267.959 107.415 266.676C107.001 265.392 107.143 264.03 107.776 262.844C108.534 261.421 109.687 260.906 111.164 260.465Z" fill="#1A5632"/>
<path d="M158.587 214.187C160.933 214.747 162.873 216.365 164.826 217.716C166.094 217.726 167.38 217.741 168.64 217.894C171.686 218.263 174.34 219.892 176.2 222.309C179.685 226.839 180.131 233.72 179.381 239.193C178.251 247.444 175.51 256.798 168.526 262.029C165.001 264.72 160.539 265.869 156.155 265.215C147.569 263.937 140.937 258.537 135.906 251.711C135.968 250.901 138.341 250.26 139.052 249.981C145.286 247.54 149.069 244.375 152.234 238.45C154.377 239.931 160.676 245.614 162.18 246.026C162.562 245.521 161.87 244.492 161.969 243.739C162.516 243.51 162.929 243.3 163.365 242.894L163.333 242.384C162.358 241.294 160.22 240.623 158.869 239.961C159.648 237.028 160.759 233.635 160.978 230.626C161.026 229.959 160.99 229.285 160.556 228.767L160.086 228.994C158.288 231.287 157.244 235.045 156.719 237.88C155.33 237.162 154.002 236.319 152.662 235.513C152.623 234.404 152.569 233.282 152.241 232.214C151.544 229.944 150.163 228.824 148.132 227.732C149.429 225.426 150.436 222.989 151.284 220.487C153.97 218.595 156.334 216.581 158.587 214.187Z" fill="white"/>
<path d="M105.657 296.672C105.979 296.684 106.162 296.821 106.431 296.986C106.719 297.886 106.297 298.908 106.054 299.799C106.849 300.308 107.631 300.843 108.515 301.186C112.345 302.662 118.251 303.156 122.08 301.419C123.13 300.942 123.623 300.273 124.009 299.218C123.999 298.282 123.356 297.301 122.936 296.474C124.475 296.905 126.353 297.285 127.507 298.482C128.458 299.466 128.597 300.879 128.53 302.185C128.275 307.206 123.126 306.357 120.382 308.994C120.196 309.172 120.272 309.339 120.273 309.582C120.378 309.643 120.49 309.717 120.607 309.76C122.782 310.528 126.231 308.974 128.175 307.995C129.589 310.173 130.631 312.212 131.007 314.835C131.223 316.346 131.203 318.149 130.186 319.394C128.032 322.032 114.939 325.684 111.242 326.518C108.324 327.203 105.36 327.672 102.373 327.92C101.267 327.943 100.16 327.958 99.0534 327.964C93.8326 327.979 83.5874 326.898 79.7939 323.036C78.71 321.933 78.3433 320.721 78.3465 319.197C78.3318 315.555 79.7789 312.06 82.3628 309.496C84.5669 307.338 87.5552 305.964 90.5647 305.395C102.352 303.169 108.33 312.05 110.162 312.063C110.2 311.249 109.683 310.457 109.335 309.74C109.786 309.314 111.01 309.588 111.673 309.585L112.015 309.177C111.2 306.874 103.246 305.393 101.5 302.152C101.142 301.487 100.972 300.717 101.245 299.989C101.871 298.325 104.156 297.303 105.657 296.672Z" fill="white"/>
<path d="M140.993 56.8515C144.885 56.6712 148.854 56.6946 152.723 57.0904C173.774 59.2455 199.347 71.9822 212.403 88.7139C211.409 91.1284 210.397 93.5311 209.421 95.9532C209.055 96.8593 208.493 98.8367 208.06 99.5549L207.623 99.4372C207.252 99.0337 206.876 98.6356 206.494 98.2425C192.116 83.4397 170.712 73.6238 150.579 69.6219C145.563 68.625 140.364 68.4937 135.257 68.4158C136.967 64.7175 138.967 60.3327 140.993 56.8515Z" fill="white"/>
<path d="M172.354 294.267C176.252 294.691 180.32 295.781 178.824 300.853C178.194 302.991 176.801 304.115 175.644 305.936C176.629 306.509 176.403 306.646 177.549 306.174C178.864 305.578 179.342 305.025 180.359 304.036C184.255 308.55 190.19 313.825 190.903 320.069C191.786 327.799 180.722 329.526 175.017 330.117C168.207 330.822 158.128 329.427 152.542 325.176C148.088 321.788 151.891 313.156 155.051 309.897C155.638 309.293 157.205 309.894 158.157 309.831C158.797 309.311 158.679 309.565 158.792 308.883C157.835 307.637 155.258 306.839 153.757 305.025C151.731 302.578 154.25 298.35 156.464 298.896C156.95 299.76 156.725 299.976 156.629 301.168C161.478 304.11 166.514 303.014 171.398 300.719C172.432 300.197 173.503 299.395 173.829 298.239C174.153 297.093 172.91 295.302 172.354 294.267Z" fill="white"/>
<path d="M175.644 305.936C176.629 306.509 176.403 306.646 177.549 306.174L177.587 306.618C178.401 307.645 180.132 308.373 180.192 309.768C174.791 309.085 171.223 307.576 165.644 309.653C164.134 310.216 160.744 312.02 159.548 311.355C159.546 310.934 159.506 310.579 159.847 310.252C163.082 307.145 167.554 306.179 171.904 306.083C173.153 306.055 174.535 306.182 175.644 305.936Z" fill="#1A5632"/>
<path d="M85.3639 211.02C86.1824 212.014 86.4817 218.249 86.9432 220.072C85.7166 220.573 84.5225 221.223 83.538 222.119C81.399 224.064 80.9001 226.563 80.7939 229.324C78.4066 231.212 74.5576 234.114 73.5097 237.051C73.2922 237.66 73.1417 238.137 73.4159 238.732C74.8792 238.693 80.2125 233.335 81.7424 232.157C82.063 233.004 82.4571 233.811 82.896 234.603C86.3031 240.748 91.6346 243.073 98.0399 244.877C96.303 247.682 94.527 250.073 92.2365 252.449C89.7854 254.731 87.2782 256.717 84.0755 257.853C80.3719 259.164 76.735 259.083 73.1914 257.315C69.9549 255.702 67.7894 252.86 66.6827 249.45C64.4477 242.564 67.1862 234.351 70.3475 228.185C72.7492 223.499 77.436 215.171 81.8768 212.34C82.8697 211.706 84.2422 211.38 85.3639 211.02Z" fill="white"/>
<path d="M138.077 204.185C139.744 204.105 141.029 204.345 142.557 205.06C145.232 206.312 147.288 208.832 148.244 211.601C149.998 216.675 147.898 224.433 144.211 228.34C142.812 229.824 139.642 231.894 138.865 233.521C139.537 233.881 140.892 233.54 141.711 233.532L141.648 233.907C139.838 236.215 136.585 238.213 133.801 239.049C130.801 239.95 127.659 238.513 124.997 237.062C123.107 236.032 121.619 234.354 121.026 232.265C119.74 227.735 122.243 224.681 124.341 221.021C124.244 220.156 123.886 219.804 123.393 219.099C123.099 218.935 122.781 218.729 122.436 218.725C121.147 218.712 120.556 220.619 119.78 221.428C119.12 221.456 118.542 221.152 118.034 220.719C117.304 220.097 116.929 219.213 116.847 218.268C116.708 216.641 117.567 214.888 118.61 213.694C119.637 212.519 121.114 211.531 122.709 211.44C125.452 211.283 128.337 212.503 130.075 214.649C130.626 215.329 131.034 216.159 131.7 216.734C131.994 216.988 132.006 216.95 132.391 216.92C132.53 216.729 132.657 216.563 132.716 216.33C132.955 215.381 132.709 214.209 132.231 213.374C130.708 210.712 127.851 210.218 125.177 209.45C124.525 209.262 123.974 209.19 123.634 208.585C124.608 207.372 125.948 206.626 127.428 206.186C130.947 205.14 133.005 205.961 135.865 207.958C136.957 208.721 138.03 209.521 138.799 210.631C139.521 211.675 139.845 213.674 140.965 214.276L141.647 213.86C141.984 213.16 142.041 212.723 141.788 211.963C141.008 209.616 138.736 206.625 136.491 205.535C136.226 205.407 136.235 205.308 136.102 205.053C136.547 204.506 137.42 204.38 138.077 204.185Z" fill="white"/>
<path d="M101.732 196.898C103.073 196.761 104.628 196.89 105.859 197.475C106.454 197.758 106.889 198.054 107.119 198.679C105.665 200.281 99.5958 199.577 96.7506 203.369C96.2243 204.07 96.0456 204.7 96.1614 205.557L96.6703 205.933C97.9247 205.765 100.686 203.265 102.222 202.609C104.93 201.451 108.195 201.082 110.97 202.222C114.26 203.574 116.125 206.137 117.474 209.288C116.205 208.363 114.912 207.352 113.453 206.753C110.807 205.669 108.214 205.84 105.604 206.959C104.369 207.488 102.536 208.586 102.113 209.964C101.902 210.652 102.031 210.872 102.373 211.439C103.339 211.448 106.702 208.98 108.805 208.623C111.719 208.128 113.794 209.554 116.038 211.175C115.251 213.527 114.43 215.746 114.056 218.212C112.767 218.274 112.051 216.024 110.485 215.814C109.846 216.162 109.504 216.691 109.161 217.317C108.818 217.939 108.619 218.464 108.825 219.146C109.281 219.389 109.968 219.67 110.254 220.121C111.326 221.811 111.506 224.975 111.164 226.895C109.896 233.999 102.604 232.233 101.731 232.802C101.621 232.873 101.591 233.519 101.176 233.815C99.96 233.761 98.6191 233.197 97.5786 232.576C95.5086 231.341 91.8225 228.171 91.2204 225.803L91.5572 225.561C92.7749 225.836 93.7668 226.795 94.7982 227.476C94.0007 225.899 92.8479 224.607 91.8471 223.164C90.1256 220.682 89.0714 217.224 88.7427 214.217C88.2553 209.754 88.8012 204.868 91.746 201.295C94.3238 198.167 97.8758 197.262 101.732 196.898Z" fill="white"/>
<path d="M100.47 247.664C100.51 247.694 100.553 247.72 100.589 247.754C101.131 248.263 101.121 249.137 101.168 249.828C101.406 253.396 101.114 257.046 101.209 260.63C101.367 266.604 101.853 272.513 102.196 278.471C99.0092 277.324 95.7608 276.254 92.6872 274.826C90.6505 273.951 88.7186 272.714 86.7434 271.694C87.251 267.913 87.5805 264.01 87.7014 260.198C93.9832 255.438 95.5372 253.666 100.47 247.664Z" fill="white"/>
<path d="M131.681 321.01C132.349 321.796 132.046 323.708 131.995 324.71C131.377 325.534 130.773 326.325 129.938 326.947C128.148 328.276 125.365 329.617 123.075 329.282C122.914 329.072 122.742 328.816 122.538 328.646C121.986 328.184 120.924 328.866 120.395 329.156C115.571 331.796 112.479 333.025 107.01 333.87C97.9237 335.275 87.0064 334.988 79.3276 329.361C78.5633 328.463 78.0579 327.134 77.9748 325.96C77.9378 325.44 77.9074 325.351 78.2386 324.961C79.9275 325.209 81.7324 326.957 83.3781 327.619C85.5466 328.491 88.0733 328.851 90.3655 329.298C101.312 331.435 110.044 329.328 120.379 325.92C124.435 324.581 128.095 323.429 131.681 321.01Z" fill="white"/>
<path d="M164.94 282.792L165.309 283.061C166.233 286.005 170.77 295.923 170.619 298.11C170.441 298.34 170.249 298.566 170.014 298.741C167.97 300.27 162.993 300.661 160.569 300.207C158.516 297.907 155.146 288.475 154.029 285.168C157.79 284.755 161.353 283.976 164.94 282.792Z" fill="#FFD7DF"/>
<path d="M191.498 326.31C191.872 326.723 191.923 326.911 191.946 327.479C191.996 329.082 191.396 330.639 190.282 331.795C186.546 335.696 178.314 336.523 173.215 336.578C166.452 336.655 156.217 335.678 151.132 330.695C150.377 329.31 150.318 327.659 150.16 326.12C157.176 330.928 164.519 332.305 172.976 332.209C178.998 332.143 187.104 330.824 191.498 326.31Z" fill="white"/>
<path d="M146.322 230.34C146.358 230.348 146.395 230.355 146.431 230.366C147.63 230.723 148.891 231.665 149.513 232.754C150.192 233.942 150.06 235.361 149.715 236.631C148.595 240.758 145.239 243.903 141.635 245.98C138.395 247.847 134.92 249.112 131.195 248.12C130.684 247.865 130.17 247.606 129.704 247.277C127.743 245.892 127.544 243.963 127.17 241.761C129.92 242.409 132.401 242.38 135.089 241.431C140.715 239.445 143.797 235.561 146.322 230.34Z" fill="white"/>
<path d="M87.405 223.127L88.0233 223.219C88.7147 224.104 88.5117 225.729 88.8776 226.84C90.015 230.289 93.5178 233.194 96.6887 234.723C99.6573 236.154 102.526 236.712 105.662 235.598C105.065 238.491 104.632 240.139 102.159 241.954C100.384 242.297 98.8 242.2 97.0366 241.782C92.551 240.719 87.9058 237.86 85.4678 233.889C84.2998 231.986 83.3084 229.404 83.8783 227.149C84.3981 225.092 85.6475 224.16 87.405 223.127Z" fill="white"/>
<path d="M107.181 283.535C110.799 284.501 114.549 284.981 118.245 285.566C119.013 289.647 120.256 294.252 120.406 298.376C120.427 298.954 120.45 298.959 120.056 299.385C119.596 299.471 119.134 299.55 118.671 299.623C116.365 299.981 112.15 300.323 110.265 298.827C108.907 297.747 107.369 285.64 107.181 283.535Z" fill="#FFD7DF"/>
<path d="M40.4585 79.1731C44.1947 78.9228 46.9829 80.7069 47.806 84.4551C49.246 91.0103 45.3855 100.35 42.0013 105.805C38.5352 105.052 34.7782 103.457 31.69 101.725C26.9677 99.0918 23.8827 95.9497 22.2524 90.7569C23.7777 82.5808 28.2994 81.418 34.9503 85.7041C35.432 82.3487 37.1211 80.0475 40.4585 79.1731Z" fill="#1A5632"/>
<path d="M251.305 126.075C251.631 126.04 251.959 126.021 252.288 126.018C253.891 126.003 255.308 126.346 256.458 127.531C258.037 129.155 258.308 131.458 258.311 133.607C260.607 132.93 263.128 132.322 265.48 133.097C266.757 133.518 267.847 134.342 268.427 135.576C269.173 137.161 269.099 139.036 268.511 140.658C267.198 144.275 263.889 146.382 260.592 147.962C257.801 149.282 251.43 151.597 248.479 151.16C247.767 150.652 247.452 149.824 247.186 149.017C245.602 144.204 244.21 134.555 246.591 129.972C247.675 127.885 249.08 126.77 251.305 126.075Z" fill="#1A5632"/>
<path d="M66.5892 59.8542C67.72 59.8684 69.2256 60.3023 69.9512 61.2343C73.1547 65.3495 67.8125 73.5008 64.6054 76.381C62.8102 75.6947 61.5435 74.8061 60.0461 73.6286C56.5883 70.5757 52.3354 65.9353 56.1469 61.3926C58.0577 59.1152 61.2341 61.4664 62.5557 63.1214C63.7896 61.2226 64.4569 60.4408 66.5892 59.8542Z" fill="#FFD7DF"/>
<path d="M27.7777 121.206C29.6632 120.984 31.1622 121.883 32.0763 124.043C33.5107 127.431 31.4975 135.015 28.924 137.512C28.127 138.286 23.9275 136.076 22.6933 135.436C20.8321 134.426 17.9365 132.531 17.4429 130.431C15.9227 123.964 20.1577 123.645 24.5619 125.696C25.0555 123.287 25.6034 122.365 27.7777 121.206Z" fill="#FFD7DF"/>
<path d="M247.442 166.391C252.204 166.743 249.929 169.335 251.876 171.389C252.633 171.586 253.418 171.104 254.111 170.811C255.475 171.322 256.663 171.709 257.376 173.082C257.814 173.929 257.872 174.861 257.568 175.763C256.856 177.879 254.993 178.863 253.113 179.77C250.89 180.673 247.148 181.774 244.753 181.522C244.249 181.136 244.088 180.886 243.871 180.278C242.822 177.34 242.987 171.708 244.338 168.941C245.039 167.508 245.967 166.894 247.442 166.391Z" fill="#FFD7DF"/>
<path d="M201.489 38.2124C195.387 35.6383 188.608 33.626 182.386 31.2514C181.488 30.9154 180.836 31.2713 180.531 32.018C180.121 33.0238 177.923 35.6652 178.733 36.7021C179.383 36.9375 179.679 36.9267 180.192 36.5335C182.903 34.4555 183.516 33.6483 187.249 35.1057L183.497 45.4181C182.694 47.6234 181.495 51.9153 179.633 53.2925C178.967 53.6989 178.197 53.7149 177.719 54.3173C177.724 54.4511 177.695 54.5294 177.802 54.6376C178.311 55.1552 188.394 58.8213 189.371 58.9074L189.613 58.7115C189.855 57.6131 188.217 56.6465 188.633 54.8781C189.121 52.807 189.888 50.9595 190.611 48.9676L194.667 37.8181C196.062 38.2476 196.157 38.3282 197.309 38.9986C199.28 40.1457 198.312 43.9061 200.05 44.5104C200.425 44.4801 200.902 44.2494 200.918 43.9012C200.986 42.4507 202.526 39.429 201.489 38.2124Z" fill="#1A5632"/>
</svg>
